#format: frame checksums
#version: 2
#hash: MD5
#tb 0: 1001/30000
#media_type 0: video
#codec_id 0: rawvideo
#dimensions 0: 18x10
#sar 0: 1/1
#stream#, dts,        pts, duration,     size, hash
0,          0,          0,        1,      270, bf574489e9360b6475aa012c747e7924
0,          1,          1,        1,      270, 851100301c2937312a6fd32f5aab5a09
0,          2,          2,        1,      270, 0f7c1209e44ea7cd4df12d82f9224684
0,          3,          3,        1,      270, 28d121f9c40de5280435bfdeaec0c072
0,          4,          4,        1,      270, bb00898d03ce4dff5f7bee719dd3f5b5
0,          5,          5,        1,      270, a098cc66bc25b81f84b0e930b0915cdb
0,          6,          6,        1,      270, 81e25f19bfcbfce17bd7138eedae04ee
0,          7,          7,        1,      270, 69c36c5ce555a461f16a1733450f7258
0,          8,          8,        1,      270, c95236d9e7c624bb664310bd9ef47fb4
0,          9,          9,        1,      270, 7ab0942e686939951037314e9402d2c1
